<mxfile host="app.diagrams.net" agent="Mozilla/5.0 (Macintosh; Intel Mac OS X 10_15_7) AppleWebKit/537.36 (KHTML, like Gecko) Chrome/130.0.0.0 Safari/537.36" version="24.8.3">
  <diagram name="Page-1" id="3GPI20UDFux035iJalDr">
    <mxGraphModel dx="1207" dy="805" grid="1" gridSize="10" guides="1" tooltips="1" connect="1" arrows="1" fold="1" page="1" pageScale="1" pageWidth="850" pageHeight="1100" math="0" shadow="0">
      <root>
        <mxCell id="0" />
        <mxCell id="1" parent="0" />
        <mxCell id="vHoMzClh3nNfFi5wtRrl-1" value="AWS Cloud" style="points=[[0,0],[0.25,0],[0.5,0],[0.75,0],[1,0],[1,0.25],[1,0.5],[1,0.75],[1,1],[0.75,1],[0.5,1],[0.25,1],[0,1],[0,0.75],[0,0.5],[0,0.25]];outlineConnect=0;gradientColor=none;html=1;whiteSpace=wrap;fontSize=12;fontStyle=0;container=1;pointerEvents=0;collapsible=0;recursiveResize=0;shape=mxgraph.aws4.group;grIcon=mxgraph.aws4.group_aws_cloud;strokeColor=#232F3E;fillColor=none;verticalAlign=top;align=left;spacingLeft=30;fontColor=#232F3E;dashed=0;" vertex="1" parent="1">
          <mxGeometry x="90" y="330" width="700" height="660" as="geometry" />
        </mxCell>
        <mxCell id="vHoMzClh3nNfFi5wtRrl-15" value="Internet Gateway: 0.0.0.0/0" style="sketch=0;outlineConnect=0;fontColor=#232F3E;gradientColor=none;fillColor=#8C4FFF;strokeColor=none;dashed=0;verticalLabelPosition=bottom;verticalAlign=top;align=center;html=1;fontSize=12;fontStyle=0;aspect=fixed;pointerEvents=1;shape=mxgraph.aws4.internet_gateway;" vertex="1" parent="vHoMzClh3nNfFi5wtRrl-1">
          <mxGeometry x="326" y="10" width="48" height="48" as="geometry" />
        </mxCell>
        <mxCell id="vHoMzClh3nNfFi5wtRrl-2" value="VPC 10.0.0.0/16" style="points=[[0,0],[0.25,0],[0.5,0],[0.75,0],[1,0],[1,0.25],[1,0.5],[1,0.75],[1,1],[0.75,1],[0.5,1],[0.25,1],[0,1],[0,0.75],[0,0.5],[0,0.25]];outlineConnect=0;gradientColor=none;html=1;whiteSpace=wrap;fontSize=12;fontStyle=0;container=1;pointerEvents=0;collapsible=0;recursiveResize=0;shape=mxgraph.aws4.group;grIcon=mxgraph.aws4.group_vpc2;strokeColor=#8C4FFF;fillColor=none;verticalAlign=top;align=left;spacingLeft=30;fontColor=#AAB7B8;dashed=0;" vertex="1" parent="1">
          <mxGeometry x="120" y="360" width="640" height="600" as="geometry" />
        </mxCell>
        <mxCell id="vHoMzClh3nNfFi5wtRrl-3" value="Elastic Beanstalk container" style="points=[[0,0],[0.25,0],[0.5,0],[0.75,0],[1,0],[1,0.25],[1,0.5],[1,0.75],[1,1],[0.75,1],[0.5,1],[0.25,1],[0,1],[0,0.75],[0,0.5],[0,0.25]];outlineConnect=0;gradientColor=none;html=1;whiteSpace=wrap;fontSize=12;fontStyle=0;container=1;pointerEvents=0;collapsible=0;recursiveResize=0;shape=mxgraph.aws4.group;grIcon=mxgraph.aws4.group_elastic_beanstalk;strokeColor=#D86613;fillColor=none;verticalAlign=top;align=left;spacingLeft=30;fontColor=#D86613;dashed=0;" vertex="1" parent="1">
          <mxGeometry x="150" y="390" width="580" height="540" as="geometry" />
        </mxCell>
        <mxCell id="vHoMzClh3nNfFi5wtRrl-4" value="AZ 1 us-east-1a" style="fillColor=none;strokeColor=#147EBA;dashed=1;verticalAlign=top;fontStyle=0;fontColor=#147EBA;whiteSpace=wrap;html=1;" vertex="1" parent="vHoMzClh3nNfFi5wtRrl-3">
          <mxGeometry x="30" y="30" width="240" height="480" as="geometry" />
        </mxCell>
        <mxCell id="vHoMzClh3nNfFi5wtRrl-5" value="AZ 2 us-east-1b" style="fillColor=none;strokeColor=#147EBA;dashed=1;verticalAlign=top;fontStyle=0;fontColor=#147EBA;whiteSpace=wrap;html=1;" vertex="1" parent="vHoMzClh3nNfFi5wtRrl-3">
          <mxGeometry x="310" y="30" width="239" height="480" as="geometry" />
        </mxCell>
        <mxCell id="vHoMzClh3nNfFi5wtRrl-6" value="Public subnet: 10.0.1.0/24" style="points=[[0,0],[0.25,0],[0.5,0],[0.75,0],[1,0],[1,0.25],[1,0.5],[1,0.75],[1,1],[0.75,1],[0.5,1],[0.25,1],[0,1],[0,0.75],[0,0.5],[0,0.25]];outlineConnect=0;gradientColor=none;html=1;whiteSpace=wrap;fontSize=12;fontStyle=0;container=1;pointerEvents=0;collapsible=0;recursiveResize=0;shape=mxgraph.aws4.group;grIcon=mxgraph.aws4.group_security_group;grStroke=0;strokeColor=#7AA116;fillColor=#F2F6E8;verticalAlign=top;align=left;spacingLeft=30;fontColor=#248814;dashed=0;" vertex="1" parent="vHoMzClh3nNfFi5wtRrl-3">
          <mxGeometry x="60" y="70" width="180" height="130" as="geometry" />
        </mxCell>
        <mxCell id="vHoMzClh3nNfFi5wtRrl-16" value="Nat gateway" style="sketch=0;outlineConnect=0;fontColor=#232F3E;gradientColor=none;fillColor=#8C4FFF;strokeColor=none;dashed=0;verticalLabelPosition=bottom;verticalAlign=top;align=center;html=1;fontSize=12;fontStyle=0;aspect=fixed;pointerEvents=1;shape=mxgraph.aws4.nat_gateway;" vertex="1" parent="vHoMzClh3nNfFi5wtRrl-6">
          <mxGeometry x="60" y="35" width="60" height="60" as="geometry" />
        </mxCell>
        <mxCell id="vHoMzClh3nNfFi5wtRrl-38" style="edgeStyle=orthogonalEdgeStyle;rounded=0;orthogonalLoop=1;jettySize=auto;html=1;" edge="1" parent="vHoMzClh3nNfFi5wtRrl-3" source="vHoMzClh3nNfFi5wtRrl-8" target="vHoMzClh3nNfFi5wtRrl-10">
          <mxGeometry relative="1" as="geometry" />
        </mxCell>
        <mxCell id="vHoMzClh3nNfFi5wtRrl-8" value="Private subnet: 10.0.3.0/24" style="points=[[0,0],[0.25,0],[0.5,0],[0.75,0],[1,0],[1,0.25],[1,0.5],[1,0.75],[1,1],[0.75,1],[0.5,1],[0.25,1],[0,1],[0,0.75],[0,0.5],[0,0.25]];outlineConnect=0;gradientColor=none;html=1;whiteSpace=wrap;fontSize=12;fontStyle=0;container=1;pointerEvents=0;collapsible=0;recursiveResize=0;shape=mxgraph.aws4.group;grIcon=mxgraph.aws4.group_security_group;grStroke=0;strokeColor=#00A4A6;fillColor=#E6F6F7;verticalAlign=top;align=left;spacingLeft=30;fontColor=#147EBA;dashed=0;" vertex="1" parent="vHoMzClh3nNfFi5wtRrl-3">
          <mxGeometry x="60" y="220" width="180" height="130" as="geometry" />
        </mxCell>
        <mxCell id="vHoMzClh3nNfFi5wtRrl-10" value="Private subnet: 10.0.5.0/24" style="points=[[0,0],[0.25,0],[0.5,0],[0.75,0],[1,0],[1,0.25],[1,0.5],[1,0.75],[1,1],[0.75,1],[0.5,1],[0.25,1],[0,1],[0,0.75],[0,0.5],[0,0.25]];outlineConnect=0;gradientColor=none;html=1;whiteSpace=wrap;fontSize=12;fontStyle=0;container=1;pointerEvents=0;collapsible=0;recursiveResize=0;shape=mxgraph.aws4.group;grIcon=mxgraph.aws4.group_security_group;grStroke=0;strokeColor=#00A4A6;fillColor=#E6F6F7;verticalAlign=top;align=left;spacingLeft=30;fontColor=#147EBA;dashed=0;" vertex="1" parent="vHoMzClh3nNfFi5wtRrl-3">
          <mxGeometry x="60" y="370" width="180" height="130" as="geometry" />
        </mxCell>
        <mxCell id="vHoMzClh3nNfFi5wtRrl-11" value="Public subnet: 10.0.2.0/24" style="points=[[0,0],[0.25,0],[0.5,0],[0.75,0],[1,0],[1,0.25],[1,0.5],[1,0.75],[1,1],[0.75,1],[0.5,1],[0.25,1],[0,1],[0,0.75],[0,0.5],[0,0.25]];outlineConnect=0;gradientColor=none;html=1;whiteSpace=wrap;fontSize=12;fontStyle=0;container=1;pointerEvents=0;collapsible=0;recursiveResize=0;shape=mxgraph.aws4.group;grIcon=mxgraph.aws4.group_security_group;grStroke=0;strokeColor=#7AA116;fillColor=#F2F6E8;verticalAlign=top;align=left;spacingLeft=30;fontColor=#248814;dashed=0;" vertex="1" parent="vHoMzClh3nNfFi5wtRrl-3">
          <mxGeometry x="339.5" y="70" width="180" height="130" as="geometry" />
        </mxCell>
        <mxCell id="vHoMzClh3nNfFi5wtRrl-17" value="Nat gateway" style="sketch=0;outlineConnect=0;fontColor=#232F3E;gradientColor=none;fillColor=#8C4FFF;strokeColor=none;dashed=0;verticalLabelPosition=bottom;verticalAlign=top;align=center;html=1;fontSize=12;fontStyle=0;aspect=fixed;pointerEvents=1;shape=mxgraph.aws4.nat_gateway;" vertex="1" parent="vHoMzClh3nNfFi5wtRrl-11">
          <mxGeometry x="60" y="35" width="60" height="60" as="geometry" />
        </mxCell>
        <mxCell id="vHoMzClh3nNfFi5wtRrl-12" value="Private subnet: 10.0.4.0/24" style="points=[[0,0],[0.25,0],[0.5,0],[0.75,0],[1,0],[1,0.25],[1,0.5],[1,0.75],[1,1],[0.75,1],[0.5,1],[0.25,1],[0,1],[0,0.75],[0,0.5],[0,0.25]];outlineConnect=0;gradientColor=none;html=1;whiteSpace=wrap;fontSize=12;fontStyle=0;container=1;pointerEvents=0;collapsible=0;recursiveResize=0;shape=mxgraph.aws4.group;grIcon=mxgraph.aws4.group_security_group;grStroke=0;strokeColor=#00A4A6;fillColor=#E6F6F7;verticalAlign=top;align=left;spacingLeft=30;fontColor=#147EBA;dashed=0;" vertex="1" parent="vHoMzClh3nNfFi5wtRrl-3">
          <mxGeometry x="339.5" y="220" width="180" height="130" as="geometry" />
        </mxCell>
        <mxCell id="vHoMzClh3nNfFi5wtRrl-13" value="Private subnet: 10.0.6.0/24" style="points=[[0,0],[0.25,0],[0.5,0],[0.75,0],[1,0],[1,0.25],[1,0.5],[1,0.75],[1,1],[0.75,1],[0.5,1],[0.25,1],[0,1],[0,0.75],[0,0.5],[0,0.25]];outlineConnect=0;gradientColor=none;html=1;whiteSpace=wrap;fontSize=12;fontStyle=0;container=1;pointerEvents=0;collapsible=0;recursiveResize=0;shape=mxgraph.aws4.group;grIcon=mxgraph.aws4.group_security_group;grStroke=0;strokeColor=#00A4A6;fillColor=#E6F6F7;verticalAlign=top;align=left;spacingLeft=30;fontColor=#147EBA;dashed=0;" vertex="1" parent="vHoMzClh3nNfFi5wtRrl-3">
          <mxGeometry x="339.5" y="370" width="180" height="130" as="geometry" />
        </mxCell>
        <mxCell id="vHoMzClh3nNfFi5wtRrl-35" value="postgres db replica" style="outlineConnect=0;dashed=0;verticalLabelPosition=bottom;verticalAlign=top;align=center;html=1;shape=mxgraph.aws3.rds_db_instance_read_replica;fillColor=#2E73B8;gradientColor=none;" vertex="1" parent="vHoMzClh3nNfFi5wtRrl-13">
          <mxGeometry x="65.25" y="32" width="49.5" height="66" as="geometry" />
        </mxCell>
        <mxCell id="vHoMzClh3nNfFi5wtRrl-23" style="edgeStyle=orthogonalEdgeStyle;rounded=0;orthogonalLoop=1;jettySize=auto;html=1;" edge="1" parent="vHoMzClh3nNfFi5wtRrl-3" source="vHoMzClh3nNfFi5wtRrl-18" target="vHoMzClh3nNfFi5wtRrl-22">
          <mxGeometry relative="1" as="geometry" />
        </mxCell>
        <mxCell id="vHoMzClh3nNfFi5wtRrl-18" value="" style="sketch=0;outlineConnect=0;fontColor=#232F3E;gradientColor=none;fillColor=#8C4FFF;strokeColor=none;dashed=0;verticalLabelPosition=bottom;verticalAlign=top;align=center;html=1;fontSize=12;fontStyle=0;aspect=fixed;pointerEvents=1;shape=mxgraph.aws4.application_load_balancer;" vertex="1" parent="vHoMzClh3nNfFi5wtRrl-3">
          <mxGeometry x="270" y="115" width="40" height="40" as="geometry" />
        </mxCell>
        <mxCell id="vHoMzClh3nNfFi5wtRrl-22" value="Auto Scaling group" style="points=[[0,0],[0.25,0],[0.5,0],[0.75,0],[1,0],[1,0.25],[1,0.5],[1,0.75],[1,1],[0.75,1],[0.5,1],[0.25,1],[0,1],[0,0.75],[0,0.5],[0,0.25]];outlineConnect=0;gradientColor=none;html=1;whiteSpace=wrap;fontSize=12;fontStyle=0;container=1;pointerEvents=0;collapsible=0;recursiveResize=0;shape=mxgraph.aws4.groupCenter;grIcon=mxgraph.aws4.group_auto_scaling_group;grStroke=1;strokeColor=#D86613;fillColor=none;verticalAlign=top;align=center;fontColor=#D86613;dashed=1;spacingTop=25;" vertex="1" parent="vHoMzClh3nNfFi5wtRrl-3">
          <mxGeometry x="40" y="210" width="500" height="150" as="geometry" />
        </mxCell>
        <mxCell id="vHoMzClh3nNfFi5wtRrl-32" value="" style="sketch=0;points=[[0,0,0],[0.25,0,0],[0.5,0,0],[0.75,0,0],[1,0,0],[0,1,0],[0.25,1,0],[0.5,1,0],[0.75,1,0],[1,1,0],[0,0.25,0],[0,0.5,0],[0,0.75,0],[1,0.25,0],[1,0.5,0],[1,0.75,0]];outlineConnect=0;fontColor=#232F3E;fillColor=#ED7100;strokeColor=#ffffff;dashed=0;verticalLabelPosition=bottom;verticalAlign=top;align=center;html=1;fontSize=12;fontStyle=0;aspect=fixed;shape=mxgraph.aws4.resourceIcon;resIcon=mxgraph.aws4.ec2;" vertex="1" parent="vHoMzClh3nNfFi5wtRrl-22">
          <mxGeometry x="80" y="45" width="60" height="60" as="geometry" />
        </mxCell>
        <mxCell id="vHoMzClh3nNfFi5wtRrl-33" value="" style="sketch=0;points=[[0,0,0],[0.25,0,0],[0.5,0,0],[0.75,0,0],[1,0,0],[0,1,0],[0.25,1,0],[0.5,1,0],[0.75,1,0],[1,1,0],[0,0.25,0],[0,0.5,0],[0,0.75,0],[1,0.25,0],[1,0.5,0],[1,0.75,0]];outlineConnect=0;fontColor=#232F3E;fillColor=#ED7100;strokeColor=#ffffff;dashed=0;verticalLabelPosition=bottom;verticalAlign=top;align=center;html=1;fontSize=12;fontStyle=0;aspect=fixed;shape=mxgraph.aws4.resourceIcon;resIcon=mxgraph.aws4.ec2;" vertex="1" parent="vHoMzClh3nNfFi5wtRrl-22">
          <mxGeometry x="359.5" y="45" width="60" height="60" as="geometry" />
        </mxCell>
        <mxCell id="vHoMzClh3nNfFi5wtRrl-24" value="Replication" style="edgeStyle=orthogonalEdgeStyle;rounded=0;orthogonalLoop=1;jettySize=auto;html=1;entryX=0.126;entryY=0.844;entryDx=0;entryDy=0;entryPerimeter=0;" edge="1" parent="vHoMzClh3nNfFi5wtRrl-3" source="vHoMzClh3nNfFi5wtRrl-10" target="vHoMzClh3nNfFi5wtRrl-5">
          <mxGeometry relative="1" as="geometry" />
        </mxCell>
        <mxCell id="vHoMzClh3nNfFi5wtRrl-34" value="postgres db" style="outlineConnect=0;dashed=0;verticalLabelPosition=bottom;verticalAlign=top;align=center;html=1;shape=mxgraph.aws3.rds_db_instance;fillColor=#2E73B8;gradientColor=none;" vertex="1" parent="vHoMzClh3nNfFi5wtRrl-3">
          <mxGeometry x="125.25" y="402" width="49.5" height="66" as="geometry" />
        </mxCell>
        <mxCell id="vHoMzClh3nNfFi5wtRrl-43" value="" style="endArrow=classic;html=1;rounded=0;exitX=0.502;exitY=0.667;exitDx=0;exitDy=0;exitPerimeter=0;" edge="1" parent="vHoMzClh3nNfFi5wtRrl-3" source="vHoMzClh3nNfFi5wtRrl-5" target="vHoMzClh3nNfFi5wtRrl-13">
          <mxGeometry width="50" height="50" relative="1" as="geometry">
            <mxPoint x="370" y="330" as="sourcePoint" />
            <mxPoint x="420" y="280" as="targetPoint" />
          </mxGeometry>
        </mxCell>
        <mxCell id="vHoMzClh3nNfFi5wtRrl-28" style="edgeStyle=orthogonalEdgeStyle;rounded=0;orthogonalLoop=1;jettySize=auto;html=1;" edge="1" parent="1" source="vHoMzClh3nNfFi5wtRrl-14" target="vHoMzClh3nNfFi5wtRrl-15">
          <mxGeometry relative="1" as="geometry">
            <mxPoint x="416" y="274" as="targetPoint" />
          </mxGeometry>
        </mxCell>
        <mxCell id="vHoMzClh3nNfFi5wtRrl-14" value="" style="sketch=0;aspect=fixed;pointerEvents=1;shadow=0;dashed=0;html=1;strokeColor=none;labelPosition=center;verticalLabelPosition=bottom;verticalAlign=top;align=center;fillColor=#00188D;shape=mxgraph.azure.computer" vertex="1" parent="1">
          <mxGeometry x="260" y="251.5" width="50" height="45" as="geometry" />
        </mxCell>
        <mxCell id="vHoMzClh3nNfFi5wtRrl-21" style="edgeStyle=orthogonalEdgeStyle;rounded=0;orthogonalLoop=1;jettySize=auto;html=1;" edge="1" parent="1" source="vHoMzClh3nNfFi5wtRrl-15" target="vHoMzClh3nNfFi5wtRrl-18">
          <mxGeometry relative="1" as="geometry" />
        </mxCell>
        <mxCell id="vHoMzClh3nNfFi5wtRrl-31" value="App UI" style="edgeStyle=orthogonalEdgeStyle;rounded=0;orthogonalLoop=1;jettySize=auto;html=1;entryX=1;entryY=0.25;entryDx=0;entryDy=0;" edge="1" parent="1" source="vHoMzClh3nNfFi5wtRrl-30" target="vHoMzClh3nNfFi5wtRrl-3">
          <mxGeometry x="0.2059" relative="1" as="geometry">
            <Array as="points">
              <mxPoint x="890" y="525" />
            </Array>
            <mxPoint as="offset" />
          </mxGeometry>
        </mxCell>
        <mxCell id="vHoMzClh3nNfFi5wtRrl-30" value="" style="sketch=0;outlineConnect=0;fontColor=#232F3E;gradientColor=none;fillColor=#7AA116;strokeColor=none;dashed=0;verticalLabelPosition=bottom;verticalAlign=top;align=center;html=1;fontSize=12;fontStyle=0;aspect=fixed;pointerEvents=1;shape=mxgraph.aws4.s3_object_lock;" vertex="1" parent="1">
          <mxGeometry x="850" y="330" width="71" height="78" as="geometry" />
        </mxCell>
      </root>
    </mxGraphModel>
  </diagram>
</mxfile>
